<svg xmlns="http://www.w3.org/2000/svg" xmlns:xlink="http://www.w3.org/1999/xlink" width="200" zoomAndPan="magnify" viewBox="0 0 150 149.999998" height="200" preserveAspectRatio="xMidYMid meet" version="1.0"><defs><clipPath id="f0a71a6a3e"><path d="M 0 29.71875 L 150 29.71875 L 150 120.46875 L 0 120.46875 Z M 0 29.71875 " clip-rule="nonzero"/></clipPath></defs><g clip-path="url(#f0a71a6a3e)"><path fill="#ffffff" d="M 35.394531 53.402344 L 63.683594 53.402344 L 63.683594 55.65625 L 37.988281 55.65625 L 37.988281 72.613281 L 62.152344 72.613281 L 62.152344 74.867188 L 37.988281 74.867188 L 37.988281 93.484375 L 63.976562 93.484375 L 63.976562 95.742188 L 35.394531 95.742188 Z M 66.21875 53.402344 L 69.226562 53.402344 L 82.546875 72.019531 L 96.160156 53.402344 L 114.679688 29.75 L 84.253906 73.976562 L 99.933594 95.742188 L 96.808594 95.742188 L 82.546875 75.933594 L 68.222656 95.742188 L 65.160156 95.742188 L 80.953125 73.976562 Z M 101.054688 55.65625 L 101.054688 53.402344 L 133.292969 53.402344 L 133.292969 55.65625 L 118.441406 55.65625 L 118.441406 95.738281 L 115.847656 95.738281 L 115.847656 55.65625 Z M 0 53.402344 L 3.242188 53.402344 L 47.941406 120.429688 L 29.472656 95.742188 L 2.710938 56.605469 L 2.59375 95.742188 L 0 95.742188 Z M 133.03125 92.808594 C 132.503906 92.808594 132.105469 92.394531 132.105469 91.863281 C 132.105469 91.332031 132.503906 90.921875 133.03125 90.921875 C 133.566406 90.921875 133.960938 91.332031 133.960938 91.863281 C 133.960938 92.394531 133.566406 92.808594 133.03125 92.808594 Z M 135.578125 90.324219 L 136.96875 90.324219 C 136.984375 91.078125 137.535156 91.585938 138.34375 91.585938 C 139.246094 91.585938 139.753906 91.042969 139.753906 90.023438 L 139.753906 83.566406 L 141.167969 83.566406 L 141.167969 90.027344 C 141.167969 91.863281 140.109375 92.921875 138.355469 92.921875 C 136.710938 92.921875 135.578125 91.894531 135.578125 90.324219 Z M 143.019531 90.242188 L 144.417969 90.242188 C 144.535156 91.113281 145.382812 91.660156 146.601562 91.660156 C 147.734375 91.660156 148.566406 91.074219 148.566406 90.261719 C 148.566406 89.566406 148.035156 89.148438 146.832031 88.863281 L 145.660156 88.578125 C 144.015625 88.195312 143.265625 87.394531 143.265625 86.054688 C 143.265625 84.425781 144.589844 83.347656 146.574219 83.347656 C 148.421875 83.347656 149.769531 84.425781 149.851562 85.964844 L 148.480469 85.964844 C 148.347656 85.121094 147.613281 84.597656 146.554688 84.597656 C 145.4375 84.597656 144.695312 85.136719 144.695312 85.960938 C 144.695312 86.609375 145.175781 86.984375 146.359375 87.261719 L 147.363281 87.507812 C 149.230469 87.945312 150 88.707031 150 90.078125 C 150 91.824219 148.648438 92.921875 146.492188 92.921875 C 144.472656 92.921875 143.117188 91.878906 143.019531 90.242188 Z M 143.019531 90.242188 " fill-opacity="1" fill-rule="nonzero"/></g></svg>