<svg xmlns="http://www.w3.org/2000/svg" xmlns:xlink="http://www.w3.org/1999/xlink" width="200" zoomAndPan="magnify" viewBox="0 0 150 149.999998" height="200" preserveAspectRatio="xMidYMid meet" version="1.0"><defs><clipPath id="3a90cadd82"><path d="M 14 8 L 106.5 8 L 106.5 147 L 14 147 Z M 14 8 " clip-rule="nonzero"/></clipPath></defs><path fill="#323738" d="M 99.007812 11.285156 L 84.390625 2.910156 C 83.75 2.445312 83.066406 2.050781 82.335938 1.734375 L 82.121094 1.613281 L 82.113281 1.628906 C 78.179688 0.03125 73.097656 0.609375 67.558594 3.808594 L 22.53125 29.800781 C 10.152344 36.949219 0.0234375 54.492188 0.0234375 68.789062 L 0.0234375 120.773438 C 0.0234375 127.746094 2.445312 132.6875 6.347656 135.117188 L 6.3125 135.183594 L 22.558594 144.386719 L 31.695312 128.484375 L 67.558594 107.777344 C 79.933594 100.628906 90.066406 83.085938 90.066406 68.789062 L 90.066406 26.851562 Z M 99.007812 11.285156 " fill-opacity="1" fill-rule="nonzero"/><path fill="#252b2d" d="M 99.007812 11.285156 L 83.359375 7.617188 C 82.722656 7.148438 79.527344 7.160156 78.796875 6.84375 L 77.636719 6.378906 L 75.550781 5.992188 C 71.617188 4.394531 73.097656 0.609375 67.558594 3.808594 L 22.53125 29.800781 C 10.152344 36.949219 0.0234375 54.492188 0.0234375 68.789062 L 0.0234375 120.773438 C 0.0234375 127.746094 2.445312 132.6875 6.347656 135.117188 L 6.3125 135.183594 L 22.558594 144.386719 L 31.695312 128.484375 L 67.558594 107.777344 C 79.933594 100.628906 90.066406 83.085938 90.066406 68.789062 L 90.066406 26.851562 Z M 99.007812 11.285156 " fill-opacity="1" fill-rule="nonzero"/><path fill="#090c0c" d="M 0.886719 61.296875 C 0.339844 63.84375 0.0273438 66.363281 0.0273438 68.789062 L 0.0273438 120.773438 C 0.0273438 127.746094 2.449219 132.6875 6.351562 135.117188 L 6.316406 135.183594 L 22.5625 144.386719 L 31.695312 128.484375 L 67.5625 107.777344 C 69.664062 106.566406 71.695312 105.03125 73.628906 103.28125 Z M 0.886719 61.296875 " fill-opacity="1" fill-rule="nonzero"/><path fill="#3b4142" d="M 38.011719 38.773438 C 25.628906 45.921875 15.5 63.464844 15.5 77.761719 L 15.5 129.746094 C 15.5 144.042969 25.628906 149.890625 38.011719 142.742188 L 83.03125 116.75 C 95.414062 109.601562 105.542969 92.058594 105.542969 77.761719 L 105.542969 25.777344 C 105.542969 11.480469 95.414062 5.632812 83.03125 12.78125 Z M 38.011719 38.773438 " fill-opacity="1" fill-rule="nonzero"/><path fill="#383e3f" d="M 105.542969 25.777344 C 105.542969 11.480469 95.410156 5.632812 83.03125 12.78125 L 38.007812 38.773438 C 25.628906 45.921875 15.5 63.464844 15.5 77.761719 L 15.5 129.746094 C 15.5 144.042969 25.628906 149.890625 38.007812 142.742188 " fill-opacity="0.2" fill-rule="nonzero"/><path fill="#3b4142" d="M 15.808594 73.855469 L 105.238281 22.226562 C 105.378906 21.144531 105.46875 20.074219 105.507812 19.015625 L 15.539062 70.960938 C 15.578125 71.96875 15.667969 72.9375 15.808594 73.855469 Z M 15.808594 73.855469 " fill-opacity="1" fill-rule="nonzero"/><g clip-path="url(#3a90cadd82)"><path fill="#4f5759" d="M 28.011719 146.722656 L 28.007812 146.722656 C 19.847656 146.722656 14.574219 140.058594 14.574219 129.746094 L 14.574219 77.761719 C 14.574219 63.132812 24.878906 45.28125 37.542969 37.96875 L 82.566406 11.976562 C 86.21875 9.867188 89.738281 8.800781 93.035156 8.800781 C 101.195312 8.800781 106.472656 15.464844 106.472656 25.777344 L 106.472656 77.761719 C 106.472656 92.390625 96.164062 110.242188 83.496094 117.554688 L 38.472656 143.546875 C 34.824219 145.652344 31.304688 146.722656 28.011719 146.722656 Z M 93.035156 10.65625 C 90.070312 10.65625 86.863281 11.640625 83.5 13.578125 L 38.472656 39.570312 C 26.316406 46.589844 16.425781 63.71875 16.425781 77.757812 L 16.425781 129.742188 C 16.425781 139.070312 20.863281 144.859375 28.007812 144.859375 L 28.011719 144.859375 C 30.976562 144.859375 34.179688 143.878906 37.542969 141.9375 L 82.566406 115.945312 C 94.722656 108.925781 104.613281 91.792969 104.613281 77.757812 L 104.613281 25.773438 C 104.613281 16.449219 100.179688 10.65625 93.035156 10.65625 Z M 93.035156 10.65625 " fill-opacity="1" fill-rule="nonzero"/></g><path fill="#ff4d8d" d="M 33.417969 53.355469 C 33.417969 52.15625 34.261719 50.6875 35.300781 50.089844 C 36.339844 49.488281 37.1875 49.976562 37.1875 51.175781 C 37.1875 52.375 36.335938 53.84375 35.300781 54.445312 C 34.265625 55.039062 33.417969 54.550781 33.417969 53.355469 Z M 33.417969 53.355469 " fill-opacity="1" fill-rule="nonzero"/><path fill="#ea2864" d="M 35.300781 54.445312 C 34.265625 55.039062 33.417969 54.550781 33.417969 53.355469 C 33.417969 52.15625 34.265625 50.6875 35.300781 50.089844 " fill-opacity="1" fill-rule="nonzero"/><path fill="#f7d011" d="M 41.449219 48.761719 C 41.449219 47.5625 42.296875 46.09375 43.335938 45.496094 C 44.371094 44.898438 45.21875 45.386719 45.21875 46.585938 C 45.21875 47.78125 44.371094 49.25 43.335938 49.847656 C 42.300781 50.449219 41.449219 49.957031 41.449219 48.761719 Z M 41.449219 48.761719 " fill-opacity="1" fill-rule="nonzero"/><path fill="#f4b414" d="M 43.335938 49.847656 C 42.300781 50.449219 41.453125 49.957031 41.453125 48.761719 C 41.453125 47.5625 42.300781 46.09375 43.335938 45.496094 " fill-opacity="1" fill-rule="nonzero"/><path fill="#15eaa8" d="M 49.484375 44.167969 C 49.484375 42.96875 50.332031 41.5 51.367188 40.902344 C 52.40625 40.304688 53.253906 40.792969 53.253906 41.992188 C 53.253906 43.1875 52.40625 44.65625 51.367188 45.253906 C 50.332031 45.855469 49.484375 45.363281 49.484375 44.167969 Z M 49.484375 44.167969 " fill-opacity="1" fill-rule="nonzero"/><path fill="#08c1b3" d="M 51.371094 45.253906 C 50.332031 45.855469 49.484375 45.363281 49.484375 44.167969 C 49.484375 42.96875 50.332031 41.5 51.371094 40.902344 " fill-opacity="1" fill-rule="nonzero"/><path fill="#ffffff" d="M 56.742188 92.933594 C 56.171875 92.933594 55.589844 92.785156 55.058594 92.480469 L 37.511719 82.347656 C 35.894531 81.417969 35.34375 79.347656 36.273438 77.734375 C 37.207031 76.117188 39.269531 75.566406 40.886719 76.5 L 58.4375 86.628906 C 60.054688 87.5625 60.605469 89.628906 59.671875 91.242188 C 59.046875 92.328125 57.914062 92.933594 56.742188 92.933594 Z M 56.742188 92.933594 " fill-opacity="1" fill-rule="nonzero"/><path fill="#ffffff" d="M 39.199219 123.324219 C 38.625 123.324219 38.042969 123.179688 37.511719 122.871094 C 35.894531 121.941406 35.34375 119.875 36.273438 118.257812 L 53.824219 87.863281 C 54.753906 86.246094 56.8125 85.691406 58.4375 86.625 C 60.054688 87.558594 60.605469 89.625 59.671875 91.242188 L 42.125 121.636719 C 41.5 122.71875 40.363281 123.324219 39.199219 123.324219 Z M 39.199219 123.324219 " fill-opacity="1" fill-rule="nonzero"/><path fill="#ffffff" d="M 62.601562 109.820312 C 61.433594 109.820312 60.300781 109.214844 59.671875 108.128906 C 58.742188 106.515625 59.292969 104.449219 60.910156 103.515625 L 84.3125 90.007812 C 85.925781 89.070312 87.992188 89.628906 88.925781 91.242188 C 89.855469 92.859375 89.304688 94.925781 87.6875 95.859375 L 64.289062 109.367188 C 63.753906 109.675781 63.171875 109.820312 62.601562 109.820312 Z M 62.601562 109.820312 " fill-opacity="1" fill-rule="nonzero"/></svg>